<?xml version="1.0" encoding="utf-8"?>
<!-- Generator: Adobe Illustrator 19.2.1, SVG Export Plug-In . SVG Version: 6.00 Build 0)  -->
<svg version="1.1" id="Camada_1" xmlns="http://www.w3.org/2000/svg" xmlns:xlink="http://www.w3.org/1999/xlink" x="0px" y="0px"
	 viewBox="0 0 294 71" style="enable-background:new 0 0 294 71;" xml:space="preserve">
<style type="text/css">
	.st0{fill:#505050;}
	.st2{fill:#ff2202;}
	.st1{fill:#ffdc28;}
	.st3{display:none;fill:#FFFFFF;}
</style>
<g>
	<path class="st0" d="M138.2,39.2v-4.5h-0.1c-0.8,1.5-2,2.7-3.6,3.6c-1.6,0.9-3.3,1.4-5.3,1.4c-2.5,0-4.4-0.6-5.9-1.8
		c-1.4-1.2-2.2-2.7-2.2-4.5c0-3.9,3-6.2,9-7.1l8-1c0-4.8-2.1-7.2-6.3-7.2c-2.9,0-5.6,1-8.4,3v-2.4c1-0.7,2.3-1.2,3.9-1.7
		c1.6-0.5,3.2-0.7,4.7-0.7c2.7,0,4.7,0.7,6.2,2.1c1.5,1.4,2.2,3.5,2.2,6.2v14.5H138.2z M131,28.1c-2.7,0.3-4.6,0.9-5.7,1.6
		c-1.1,0.7-1.6,2-1.6,3.6c0,1.3,0.5,2.4,1.5,3.3c1,0.9,2.4,1.3,4.3,1.3c2.5,0,4.6-0.8,6.2-2.4c1.7-1.6,2.5-3.6,2.5-6.1v-2.2
		L131,28.1z"/>
	<path class="st0" d="M165.3,37.6c0,4.2-1.1,7.3-3.2,9.2c-2.1,1.9-5.4,2.9-10,2.9c-2.5,0-5.1-0.6-7.7-1.7v-2.1c2.7,1.3,5.3,2,7.8,2
		c7.2,0,10.8-3.2,10.8-9.7v-2.9h-0.1c-2,3-5.2,4.5-9.4,4.5c-3.2,0-5.8-1-7.8-3c-2-2-3-4.8-3-8.3c0-3.6,1.1-6.5,3.3-8.7
		s5.1-3.4,8.6-3.4c3.8,0,6.6,1.4,8.3,4.1h0.1V17h2.3V37.6z M162.9,25.5c0-2-0.8-3.7-2.3-5.1c-1.5-1.4-3.6-2.2-6.1-2.2
		c-2.9,0-5.2,0.9-6.9,2.8c-1.7,1.8-2.6,4.3-2.6,7.3c0,3,0.8,5.4,2.4,7.1c1.6,1.7,3.7,2.5,6.3,2.5c2.8,0,5-0.8,6.7-2.3
		c1.7-1.6,2.5-3.5,2.5-5.7V25.5z"/>
	<path class="st0" d="M170.8,11.3c-0.5,0-1-0.2-1.3-0.5c-0.4-0.3-0.6-0.7-0.6-1.2c0-0.5,0.2-0.9,0.6-1.2c0.4-0.3,0.8-0.4,1.3-0.4
		c0.5,0,1,0.1,1.4,0.4c0.4,0.3,0.6,0.7,0.6,1.2c0,0.5-0.2,0.9-0.6,1.2C171.8,11.2,171.4,11.3,170.8,11.3z M169.7,39.2V17h2.3v22.3
		H169.7z"/>
	<path class="st0" d="M176.4,39.2v-33h2.3v33H176.4z"/>
	<path class="st0" d="M184.3,11.3c-0.5,0-1-0.2-1.3-0.5c-0.4-0.3-0.6-0.7-0.6-1.2c0-0.5,0.2-0.9,0.6-1.2c0.4-0.3,0.8-0.4,1.3-0.4
		c0.5,0,1,0.1,1.4,0.4c0.4,0.3,0.6,0.7,0.6,1.2c0,0.5-0.2,0.9-0.6,1.2C185.4,11.2,184.9,11.3,184.3,11.3z M183.2,39.2V17h2.3v22.3
		H183.2z"/>
	<path class="st0" d="M208.4,39.2v-4h-0.1c-0.8,1.4-2.1,2.5-3.8,3.4c-1.7,0.8-3.5,1.2-5.6,1.2c-3.2,0-5.8-1-7.8-3c-2-2-3-4.8-3-8.3
		c0-3.6,1.1-6.5,3.3-8.7c2.2-2.2,5.1-3.3,8.6-3.3c3.9,0,6.7,1.4,8.3,4.1h0.1V6.3h2.3v33H208.4z M208.4,25.7c0-2.1-0.8-3.8-2.3-5.3
		c-1.5-1.4-3.6-2.2-6.2-2.2c-2.7,0-5,0.9-6.8,2.7c-1.8,1.8-2.7,4.3-2.7,7.4c0,3.1,0.8,5.5,2.4,7.1c1.6,1.7,3.7,2.5,6.2,2.5
		c3,0,5.3-0.8,6.9-2.4c1.6-1.6,2.4-3.5,2.4-5.8V25.7z"/>
	<path class="st0" d="M230.7,39.2v-4.5h-0.1c-0.8,1.5-2,2.7-3.6,3.6c-1.6,0.9-3.3,1.4-5.3,1.4c-2.5,0-4.4-0.6-5.9-1.8
		c-1.4-1.2-2.2-2.7-2.2-4.5c0-3.9,3-6.2,9-7.1l8-1c0-4.8-2.1-7.2-6.3-7.2c-2.9,0-5.6,1-8.4,3v-2.4c1-0.7,2.3-1.2,3.9-1.7
		c1.7-0.5,3.2-0.7,4.7-0.7c2.7,0,4.7,0.7,6.2,2.1c1.5,1.4,2.2,3.5,2.2,6.2v14.5H230.7z M223.6,28.1c-2.7,0.3-4.6,0.9-5.7,1.6
		c-1.1,0.7-1.7,2-1.7,3.6c0,1.3,0.5,2.4,1.5,3.3c1,0.9,2.5,1.3,4.3,1.3c2.5,0,4.6-0.8,6.2-2.4c1.7-1.6,2.5-3.6,2.5-6.1v-2.2
		L223.6,28.1z"/>
	<path class="st0" d="M255.4,39.2v-4h-0.1c-0.8,1.4-2.1,2.5-3.8,3.4c-1.7,0.8-3.5,1.2-5.6,1.2c-3.2,0-5.8-1-7.8-3c-2-2-3-4.8-3-8.3
		c0-3.6,1.1-6.5,3.3-8.7c2.2-2.2,5.1-3.3,8.6-3.3c3.9,0,6.7,1.4,8.3,4.1h0.1V6.3h2.3v33H255.4z M255.4,25.7c0-2.1-0.8-3.8-2.3-5.3
		c-1.5-1.4-3.6-2.2-6.2-2.2c-2.7,0-5,0.9-6.8,2.7c-1.8,1.8-2.7,4.3-2.7,7.4c0,3.1,0.8,5.5,2.4,7.1c1.6,1.7,3.7,2.5,6.2,2.5
		c3,0,5.3-0.8,6.9-2.4c1.6-1.6,2.4-3.5,2.4-5.8V25.7z"/>
	<path class="st0" d="M262.8,28.2c0,3.1,0.8,5.5,2.5,7.2c1.7,1.7,3.9,2.6,6.8,2.6c2.9,0,5.8-0.9,8.5-2.8v2.1c-2.7,1.6-5.7,2.5-9,2.5
		c-3.4,0-6.1-1-8.1-3.1c-2.1-2.1-3.1-5-3.1-8.7c0-3.2,1.1-6,3.2-8.2c2.2-2.2,5-3.3,8.4-3.3c3.2,0,5.7,1,7.4,2.9
		c1.7,1.9,2.6,4.6,2.6,8v0.9H262.8z M279.6,26.4c-0.1-2.6-0.8-4.6-2.2-6c-1.3-1.4-3.2-2.1-5.5-2.1c-2.4,0-4.5,0.7-6.1,2.1
		c-1.6,1.4-2.6,3.4-3,6H279.6z"/>
</g>
<g>
	<polygon class="st1" points="41.6,1.8 47.9,12.6 99.9,12.6 73.9,57.6 80.5,69.1 80.7,69.1 119.5,1.8 	"/>
	<polygon class="st2" points="45.6,14.3 39.1,3 39.1,3 0,70.3 77.8,70.3 71.6,59.5 19.4,59.5 	"/>
	<polygon class="st3" points="45.9,13.8 45.9,13.8 45.8,13.8 45.9,13.9 45.6,14.3 71.6,59.5 72.2,59.5 72.2,59.5 72.3,59.5 
		72.6,58.8 46.7,13.8 	"/>
	<polygon class="st3" points="46.7,13.8 72.6,58.8 98.6,13.8 	"/>
	<polygon class="st3" points="19.4,59.5 71.6,59.5 45.6,14.3 	"/>
</g>
<g>
	<g>
		<path class="st0" d="M201.9,61.3L201.9,61.3c-0.9,2.3-2.5,3.4-4.9,3.4c-1.5,0-2.8-0.5-3.7-1.5c-0.9-1-1.4-2.3-1.4-3.9
			c0-2.2,0.6-4,1.9-5.4c1.3-1.4,3-2.2,5.1-2.2c0.8,0,1.5,0.2,2.2,0.5c0.6,0.4,1,0.8,1.2,1.3h0.1c0-0.3,0.1-0.8,0.2-1.7h2.1
			c-0.5,5.3-0.8,8-0.8,8.1c0,2,0.7,3,2,3c1.2,0,2.2-0.6,3-1.7c0.8-1.1,1.2-2.6,1.2-4.4c0-2.6-1-4.8-2.9-6.5c-2-1.7-4.7-2.5-8.1-2.5
			c-3.3,0-6.1,1-8.3,3c-2.2,2-3.3,4.5-3.3,7.5c0,3,1,5.3,3.1,7.1c2.1,1.8,4.9,2.7,8.4,2.7c2.8,0,5.1-0.4,7.1-1.2V69
			c-1.9,0.7-4.4,1.1-7.3,1.1c-4.1,0-7.4-1.1-9.9-3.2c-2.5-2.1-3.7-4.9-3.7-8.3c0-3.5,1.3-6.4,3.9-8.8c2.6-2.3,6-3.5,10-3.5
			c3.8,0,7,1,9.5,2.9s3.8,4.5,3.8,7.6c0,2.3-0.7,4.2-2,5.6s-2.9,2.2-4.8,2.2C203.1,64.7,201.9,63.6,201.9,61.3z M198.9,53.5
			c-1.4,0-2.5,0.6-3.4,1.7c-0.9,1.1-1.3,2.5-1.3,4.2c0,1.1,0.3,2,0.9,2.7c0.6,0.7,1.3,1,2.3,1c1.4,0,2.5-0.6,3.3-1.8
			c0.8-1.2,1.2-2.8,1.2-4.7C201.9,54.5,200.9,53.5,198.9,53.5z"/>
		<path class="st0" d="M224.4,55c-0.5-0.3-1.2-0.5-2.1-0.5c-1.2,0-2.2,0.5-3,1.4c-0.8,1-1.2,2.2-1.2,3.9v7.5h-2.8V52.6h2.8v3h0.1
			c0.4-1,1-1.8,1.8-2.4c0.8-0.6,1.7-0.9,2.7-0.9c0.7,0,1.3,0.1,1.6,0.2V55z"/>
		<path class="st0" d="M238.2,60.6H226c0,1.6,0.6,2.9,1.5,3.8c1,0.9,2.3,1.3,4.1,1.3c1.9,0,3.7-0.5,5.3-1.6v2.2
			c-1.5,0.9-3.5,1.4-6,1.4c-2.4,0-4.3-0.7-5.7-2c-1.4-1.3-2.1-3.2-2.1-5.7c0-2.3,0.8-4.2,2.3-5.6c1.5-1.4,3.4-2.2,5.7-2.2
			c2.3,0,4,0.6,5.2,1.9c1.2,1.2,1.9,3,1.9,5.2V60.6z M235.3,58.6c0-1.4-0.4-2.4-1.2-3.2c-0.8-0.8-1.8-1.1-3.2-1.1
			c-1.3,0-2.4,0.4-3.3,1.2c-0.9,0.8-1.5,1.8-1.7,3.1H235.3z"/>
		<path class="st0" d="M251.5,66.7c-1.3,0.7-2.9,1-4.7,1c-2.5,0-4.4-0.7-5.9-2.1c-1.5-1.4-2.3-3.1-2.3-5.3c0-2.4,0.8-4.4,2.4-5.9
			c1.6-1.5,3.8-2.2,6.5-2.2c1.5,0,2.8,0.2,4,0.7v2.4c-1.3-0.8-2.6-1.2-4.1-1.2c-1.8,0-3.2,0.5-4.3,1.6c-1.1,1.1-1.7,2.5-1.7,4.3
			c0,1.7,0.5,3.1,1.6,4.1c1.1,1,2.5,1.5,4.3,1.5c1.5,0,2.9-0.4,4.2-1.3V66.7z"/>
		<path class="st0" d="M254.5,48.9c-0.5,0-0.9-0.1-1.3-0.4c-0.3-0.3-0.5-0.7-0.5-1.1c0-0.4,0.2-0.8,0.5-1.1c0.3-0.3,0.8-0.4,1.3-0.4
			c0.5,0,0.9,0.1,1.3,0.4c0.4,0.3,0.5,0.7,0.5,1.1c0,0.4-0.2,0.8-0.5,1.1S255,48.9,254.5,48.9z M255.8,67.4h-2.8V52.6h2.8V67.4z"/>
		<path class="st0" d="M267.4,47.6c-0.5-0.3-1.1-0.4-1.8-0.4c-1.9,0-2.9,1-2.9,3.1v2.3h4v2h-4v12.7h-2.7V54.6h-2.9v-2h2.9v-2.4
			c0-1.5,0.5-2.8,1.6-3.7c1-0.9,2.3-1.3,3.9-1.3c0.8,0,1.5,0.1,2,0.3V47.6z"/>
		<path class="st0" d="M280.9,60.6h-12.2c0,1.6,0.6,2.9,1.5,3.8c1,0.9,2.3,1.3,4.1,1.3c1.9,0,3.7-0.5,5.3-1.6v2.2
			c-1.5,0.9-3.5,1.4-6,1.4c-2.4,0-4.3-0.7-5.7-2c-1.4-1.3-2.1-3.2-2.1-5.7c0-2.3,0.8-4.2,2.3-5.6c1.5-1.4,3.4-2.2,5.7-2.2
			c2.3,0,4,0.6,5.2,1.9c1.2,1.2,1.9,3,1.9,5.2V60.6z M278.1,58.6c0-1.4-0.4-2.4-1.2-3.2c-0.8-0.8-1.8-1.1-3.2-1.1
			c-1.3,0-2.4,0.4-3.3,1.2c-0.9,0.8-1.5,1.8-1.7,3.1H278.1z"/>
	</g>
</g>
</svg>
